<svg xmlns="http://www.w3.org/2000/svg" xmlns:xlink="http://www.w3.org/1999/xlink" viewBox="0 0 24 24">
	<!--
		Chrome 63 не любит кириллицу в <use xlink:href> сука.
		https://bugs.chromium.org/p/chromium/issues/detail?id=779420

		HACK Chrome 65: Если добавить filter с feOffset, то при определенных дробных значениях
		rem фоновое изображение будет обрезано.

		HACK Edge 16: Если добавить filter с feOffset, то изображение может быть замылено. Чтобы этого
		избежать, нужно в <svg> удалить атрибуты width и height и в CSS указать background-size: auto.

		HACK Edge 16: При определенных дробных значениях rem фоновое изображение будет обрезано,
		поэтому не растягиваем изображение на всю площадь viewBox.
		https://developer.microsoft.com/en-us/microsoft-edge/platform/issues/4705340/
	-->
	<defs>
		<style>
			g {display: none}
			g:target {display: inline}
		</style>
		<linearGradient id="_gradient" gradientTransform="rotate(90)">
			<stop offset="25%"  stop-color="#fff"/>
			<stop offset="100%" stop-color="#bbb"/>
		</linearGradient>
	</defs>
	<g id="select">
		<path fill="#333" d="M6 9l6 7 6-7z"/>
	</g>
	<g id="radio0">
		<!--
			Author: Keyamoon
			Source: http://keyamoon.com
			License: GPL or CC BY 4.0
		-->
		<path id="_radio0" fill="url(#_gradient)" d="M12 2c-5.5 0-10 4.5-10 10s4.5 10 10 10 10-4.5 10-10-4.5-10-10-10zM12 19.5c-4.167 0-7.5-3.333-7.5-7.5s3.333-7.5 7.5-7.5c4.167 0 7.5 3.333 7.5 7.5s-3.333 7.5-7.5 7.5z"/>
	</g>
	<g id="radio1">
		<use xlink:href="#_radio0"/>
		<circle cx="12" cy="12" r="4" fill="#fff"/>
	</g>
	<g id="checkbox0">
		<!--
			Author: Google; https://design.google.com/icons/
			License: Apache License Version 2.0
		-->
		<path fill="url(#_gradient)" d="M19.667 2.143h-15.333c-1.205 0-2.19 0.986-2.19 2.19v15.333c0 1.205 0.986 2.19 2.19 2.19h15.333c1.205 0 2.19-0.986 2.19-2.19v-15.333c0-1.205-0.986-2.19-2.19-2.19zM19.667 4.333v15.333h-15.333v-15.333h15.333z"/>
	</g>
	<g id="checkbox1">
		<!--
			Author: Google; https://design.google.com/icons/
			License: Apache License Version 2.0
		-->
		<path fill="url(#_gradient)" d="M19.667 2.143h-15.333c-1.205 0-2.19 0.986-2.19 2.19v15.333c0 1.205 0.986 2.19 2.19 2.19h15.333c1.205 0 2.19-0.986 2.19-2.19v-15.333c0-1.205-0.986-2.19-2.19-2.19z"/>
		<path fill="#000" d="M9.81 17.476l-5.476-5.476 1.544-1.544 3.932 3.921 8.313-8.313 1.544 1.555-9.857 9.857z"/>
	</g>
	<g id="scrolldown">
		<!--
			Author: Daniel Bruce; http://www.entypo.com/
			Source: https://icomoon.io
			License: CC BY-SA 4.0
		-->
		<path fill="url(#_gradient)" d="M1.551 6.183c0.831-0.85 1.988-0.917 3.004 0l7.448 7.141 7.448-7.141c1.016-0.917 2.175-0.85 3 0 0.831 0.848 0.778 2.281 0 3.078-0.774 0.797-8.948 8.58-8.948 8.58-0.414 0.425-0.957 0.638-1.5 0.638s-1.086-0.213-1.504-0.638c0 0-8.17-7.784-8.948-8.58-0.779-0.797-0.831-2.23 0-3.078z"/>
	</g>
	<g id="menu">
		<!--
			Author: Google; https://design.google.com/icons/
			License: Apache License Version 2.0
		-->
		<path fill="#000" d="M12 8c1.1 0 2-.9 2-2s-.9-2-2-2-2 .9-2 2 .9 2 2 2zm0 2c-1.1 0-2 .9-2 2s.9 2 2 2 2-.9 2-2-.9-2-2-2zm0 6c-1.1 0-2 .9-2 2s.9 2 2 2 2-.9 2-2-.9-2-2-2z"/>
	</g>
</svg>